# xmcd
#
# Track frame offsets:
#	150
#	17751
#	38488
#	58380
#	73984
#	91512
#	112699
#	124626
#	137467
#	152220
#	171767
#	189662
#	203577
#	222347
#	238486
#	250701
#	273429
#	288881
#
# Disc length: 4089
#
# Revision: 1
# Processed by: cddbd v1.5.1PL0 Copyright (c) Steve Scherf et al.
# Submitted via: audiograbber 1.80.04
# Normalized: r0:DSETVAR1
#
DISCID=fd0ff712
DTITLE=Various Artist - The best of Ti Amo Italia
DYEAR=2002
DGENRE=Pop
TTITLE0=Umberto Tozzi and Raf - Gente di mare
TTITLE1=Bruno Pelletier and Hélène Segara - Vivo per lei (Je vis pour elle)
TTITLE2=Toto Cutugno - Insieme 1992
TTITLE3=Matia Bazar - Solo Tu
TTITLE4=I Santo California - Tornero
TTITLE5=Drupi - Vado Via
TTITLE6=Marino Marini - Come prima
TTITLE7=Gigliola Cinquetti - Non ho l'eta
TTITLE8=Ricchi e Poveri - M'innamoro di te
TTITLE9=Amedeo Minghi - La ragine L'Amore
TTITLE10=Mietta and Amedeo Minghi - Vattene amore
TTITLE11=Enrico Ruggeri - Sole d'europa
TTITLE12=Filippa Giordano - Amarti si (italian remix)
TTITLE13=Domenico Modugno - Ne blu di pinto di blu
TTITLE14=Rafaella Carra - A far l'amore comincia tu
TTITLE15=Dalida - Ciao Amore Ciao (2001 remix)
TTITLE16=Edoardo Bennato - Viva la mama
TTITLE17=Al Bano and Romina Power - Sempre sempre
EXTD=
EXTT0=
EXTT1=
EXTT2=
EXTT3=
EXTT4=
EXTT5=
EXTT6=
EXTT7=
EXTT8=
EXTT9=
EXTT10=
EXTT11=
EXTT12=
EXTT13=
EXTT14=
EXTT15=
EXTT16=
EXTT17=
PLAYORDER=
